<?xml version="1.0" encoding="utf-8"?>
<!-- Generator: Adobe Illustrator 24.2.2, SVG Export Plug-In . SVG Version: 6.00 Build 0)  -->
<svg version="1.1" id="Layer_1" xmlns="http://www.w3.org/2000/svg" xmlns:xlink="http://www.w3.org/1999/xlink" x="0px" y="0px"
	 viewBox="0 0 235.8 220" style="enable-background:new 0 0 235.8 220;" xml:space="preserve">
<style type="text/css">
	.st0{fill:#FFFFFF;}
</style>
<g id="Layer_2_1_">
	<g id="Layer_1-2">
		<path class="st0" d="M186.5,65.8c4.3,0.3,8,0.2,11.5,0.9c20.5,3.9,31.6,17.6,35.9,37c6.1,28-2.4,53-18.3,75.8
			c-3.9,5.6-8.9,10.3-13.5,15.3c-1.3,1.2-2.7,2.2-4.2,3.1l-1.5-0.8c0.5-2,0.9-4.1,1.6-6c8.1-21.7-7.6-45.1-30.4-45.3
			c-18.5-0.2-33,13-34.1,32.1c-0.9,16.2,10,30.7,27.5,34.2c1.5,0.3,3,0.7,5.6,1.3c-5,4.4-10,4.7-14.8,5.2c-25.4,2.5-51,1.7-76.1-2.6
			c-16.4-2.8-32.7-6-48.9-9.4c-9.4-2-18.5-5.5-26.8-10.4c3.3-3,6.9-5.1,8.7-8.2c4.7-8,8.9-16.3,12.7-24.8c7-15.5,8.8-32.2,11.2-48.9
			c2.7-19.1,5.1-38.4,17-54.7c28.2-38.7,88-42.2,120.6-7.2c1.4,1.5,2.7,2.9,4.8,5.2L192.5,0l31.1,19.1L186.5,65.8z"/>
	</g>
</g>
</svg>
