<svg xmlns="http://www.w3.org/2000/svg" viewBox="0 0 235.791 220.035"><defs><style>.cls-1{fill:#53a04a;}</style></defs><g id="Layer_2" data-name="Layer 2"><g id="Layer_1-2" data-name="Layer 1"><path class="cls-1" d="M186.485,65.809c4.306.3,7.963.182,11.469.855,20.54,3.943,31.629,17.619,35.855,37,6.109,28.023-2.437,52.957-18.346,75.77-3.875,5.555-8.906,10.315-13.522,15.333a27.811,27.811,0,0,1-4.159,3.125l-1.459-.82c.54-2.017.918-4.093,1.643-6.041,8.073-21.693-7.634-45.077-30.448-45.273-18.519-.158-33,12.986-34.071,32.088-.91,16.2,9.965,30.7,27.521,34.221,1.5.3,2.98.706,5.639,1.344-4.978,4.352-10.038,4.72-14.778,5.2a284.025,284.025,0,0,1-76.122-2.618c-16.365-2.774-32.654-6.033-48.916-9.372A91.8,91.8,0,0,1,0,196.248c3.288-3,6.876-5.063,8.683-8.163a264.8,264.8,0,0,0,12.665-24.772c6.972-15.508,8.8-32.227,11.17-48.87,2.717-19.057,5.072-38.366,16.957-54.669,28.191-38.671,88.019-42.239,120.556-7.15,1.35,1.456,2.679,2.931,4.784,5.237L192.516,0l31.056,19.128Z"/></g></g></svg>